<?xml version="1.0" encoding="UTF-8" standalone="no"?>
<!-- Created with Inkscape (http://www.inkscape.org/) -->

<svg
   xmlns:dc="http://purl.org/dc/elements/1.1/"
   xmlns:cc="http://creativecommons.org/ns#"
   xmlns:rdf="http://www.w3.org/1999/02/22-rdf-syntax-ns#"
   xmlns:svg="http://www.w3.org/2000/svg"
   xmlns="http://www.w3.org/2000/svg"
   xmlns:sodipodi="http://sodipodi.sourceforge.net/DTD/sodipodi-0.dtd"
   xmlns:inkscape="http://www.inkscape.org/namespaces/inkscape"
   width="16"
   height="16"
   viewBox="0 0 16.00000012 16.00000034"
   id="svg2"
   version="1.1"
   inkscape:version="0.91 r13725"
   sodipodi:docname="logo.svg"
   inkscape:export-filename="C:\Users\kubuzetto\Desktop\logo1024.png"
   inkscape:export-xdpi="5760"
   inkscape:export-ydpi="5760">
  <defs
     id="defs4" />
  <sodipodi:namedview
     id="base"
     pagecolor="#ffffff"
     bordercolor="#666666"
     borderopacity="1.0"
     inkscape:pageopacity="0.0"
     inkscape:pageshadow="2"
     inkscape:zoom="54.8125"
     inkscape:cx="8"
     inkscape:cy="8"
     inkscape:document-units="px"
     inkscape:current-layer="layer1"
     showgrid="false"
     inkscape:object-nodes="true"
     units="px"
     inkscape:window-width="1920"
     inkscape:window-height="1027"
     inkscape:window-x="-8"
     inkscape:window-y="-8"
     inkscape:window-maximized="1" />
  <metadata
     id="metadata7">
    <rdf:RDF>
      <cc:Work
         rdf:about="">
        <dc:format>image/svg+xml</dc:format>
        <dc:type
           rdf:resource="http://purl.org/dc/dcmitype/StillImage" />
        <dc:title />
      </cc:Work>
    </rdf:RDF>
  </metadata>
  <g
     inkscape:label="Layer 1"
     inkscape:groupmode="layer"
     id="layer1"
     transform="translate(0,-1036.36216)">
    <path
       style="opacity:1;fill:#f9f9f9;fill-opacity:1;stroke:none;stroke-width:0.0500000007;stroke-linecap:square;stroke-linejoin:miter;stroke-miterlimit:4;stroke-dasharray:none;stroke-dashoffset:0;stroke-opacity:1"
       d="M 3.524912632,1040.975461 12.3314563,1040.975461 12.3314563,1047.726762 3.524912632,1047.726762 Z"
       id="rect4819"
       inkscape:connector-curvature="0" />
    <path
       style="opacity:1;fill:#1d5d7f;fill-opacity:1;stroke:none;stroke-width:0.05;stroke-linecap:square;stroke-linejoin:miter;stroke-miterlimit:4;stroke-dasharray:none;stroke-dashoffset:0;stroke-opacity:1"
       d="M 4,4 3.13671875,4.13671875 3,5 3,11 3.13671875,11.86328125 4,12 9.35546875,12 10.23046875,13 11.58513722,12.92154155 10.89648438,12 12,12 12.86328125,11.86328125 13,11 13,5 12.86328125,4.13671875 12,4 Z M 4,5 12,5 12,11 4,11 Z"
       id="path4800"
       inkscape:connector-curvature="0"
       sodipodi:nodetypes="cccccccccccccccccccccc"
       transform="translate(0,1036.36216)" />
    <path
       style="opacity:1;fill:#ff2a2a;fill-opacity:1;stroke:none;stroke-width:0.05;stroke-linecap:square;stroke-linejoin:miter;stroke-miterlimit:4;stroke-dasharray:none;stroke-dashoffset:0;stroke-opacity:1"
       d="M 2,1050.36216 2,1051.36216 14,1051.36216 14,1050.36216 2,1050.36216 Z"
       id="path4670" />
    <path
       style="opacity:1;fill:#1d5d7f;fill-opacity:1;stroke:none;stroke-width:0.05;stroke-linecap:square;stroke-linejoin:miter;stroke-miterlimit:4;stroke-dasharray:none;stroke-dashoffset:0;stroke-opacity:1"
       d="M 10.05018692,1042.506048 10.06191287,1044.006862 10.1842747,1045.010386 10.78563344,1045.026042 10.96004606,1044.030244 11.0498482,1042.532074 10.05018692,1042.506048 Z M 10.47600784,1045.361848 A 0.5,0.5 0 0 0 9.963164499,1045.848666 0.5,0.5 0 0 0 10.44998244,1046.361509 0.5,0.5 0 0 0 10.96282578,1045.874691 0.5,0.5 0 0 0 10.47600784,1045.361848 Z"
       id="rect4756"
       inkscape:connector-curvature="0" />
    <path
       style="opacity:1;fill:#ff2a2a;fill-opacity:1;stroke:none;stroke-width:0.05;stroke-linecap:square;stroke-linejoin:miter;stroke-miterlimit:4;stroke-dasharray:none;stroke-dashoffset:0;stroke-opacity:1"
       d="M 6.15537916,1042.595054 A 1.171572874,1.171572874 0 0 0 5.316256251,1042.953481 1.171572874,1.171572874 0 0 0 5.346554103,1044.610055 L 7.033435415,1046.236341 8.659711516,1044.549459 A 1.171572874,1.171572874 0 0 0 8.629413664,1042.892885 1.171572874,1.171572874 0 0 0 6.972848685,1042.923183 L 6.972839526,1042.923183 A 1.171572874,1.171572874 0 0 0 6.15537916,1042.595054 Z"
       id="path4194"
       inkscape:connector-curvature="0" />
    <path
       style="opacity:1;fill:#ff2a2a;fill-opacity:1;stroke:none;stroke-width:0.093718565;stroke-linecap:square;stroke-linejoin:miter;stroke-miterlimit:4;stroke-dasharray:none;stroke-dashoffset:0;stroke-opacity:1"
       d="M 0.8551971314,1049.145868 -0.1302181761,1048.429922 -0.0819887494,1047.271497 1.79238255,1047.271497 1.840612439,1048.429922 Z"
       id="path4793"
       inkscape:connector-curvature="0"
       sodipodi:nodetypes="cccccc"
       inkscape:transform-center-x="0.05278662784"
       transform="matrix(0,0.5335122237,-0.5335122237,0,559.7321451,1050.405902)" />
    <path
       sodipodi:nodetypes="cccccc"
       inkscape:connector-curvature="0"
       id="path4796"
       d="M 15.999999,1050.86216 15.618033,1051.387891 15,1051.36216 15,1050.36216 15.618033,1050.336429 Z"
       style="opacity:1;fill:#ff2a2a;fill-opacity:1;stroke:none;stroke-width:0.05;stroke-linecap:square;stroke-linejoin:miter;stroke-miterlimit:4;stroke-dasharray:none;stroke-dashoffset:0;stroke-opacity:1"
       inkscape:transform-center-x="-0.05278662462" />
  </g>
</svg>
